# xmcd CD database file
# Copyright (C) 1997 Ti Kan
#
# Track frame offsets:
#  150
#  20060
#  39150
#  64450
#  80010
#  102687
#  128035
#  150850
#  171062
#  189400
#  208275
#  225022
#  244100
#  266297
#  282992
#  304545
#
# Disc length: 4314 seconds
#
# Revision: 1
# Processed by: cddbd v1.4b41PL1 Copyright (c) Steve Scherf et al.
# Submitted via: CDWizzard Release:4.32
#
DISCID=d010d810
DTITLE=Rappin' 4-Tay - Off Parole
DYEAR=1900
DGENRE=
TTITLE0=I Paid My Dues
TTITLE1=New Trump
TTITLE2=A Lil' Some'em Some'em
TTITLE3=Check Ya Self
TTITLE4=Ain't No Playa (Playaz Sh't)
TTITLE5=Never Talk Down
TTITLE6=25-2-Life
TTITLE7=Boogie Bang Bang
TTITLE8=Comin' Back
TTITLE9=Hala At A Playa
TTITLE10=Game On The Shelf
TTITLE11=Off Parole
TTITLE12=Where's The Party
TTITLE13=Phat Like That
TTITLE14=Still Ph#@*in' Wit My Folk$
TTITLE15=Ain't No Playa (Radio Mix)
EXTD=
EXTT0=
EXTT1=
EXTT2=
EXTT3=
EXTT4=
EXTT5=
EXTT6=
EXTT7=
EXTT8=
EXTT9=
EXTT10=
EXTT11=
EXTT12=
EXTT13=
EXTT14=
EXTT15=
PLAYORDER=
